<?xml version="1.0" encoding="utf-8"?>
<!-- Generator: Adobe Illustrator 23.0.2, SVG Export Plug-In . SVG Version: 6.00 Build 0)  -->
<svg version="1.1" id="Layer_1" xmlns="http://www.w3.org/2000/svg" xmlns:xlink="http://www.w3.org/1999/xlink" x="0px" y="0px"
	 viewBox="0 0 117 60.7" style="enable-background:new 0 0 117 60.7;" xml:space="preserve">
<style type="text/css">
	.st0{fill:#FFFFFF;}
</style>
<g transform="translate(-632.179939 -388.599574)">
	<path class="st0" d="M711.2,411.9c-0.7-0.5-1.9-0.9-3-0.9c-1.2,0-2.4,0.4-3.2,1.1v-7.7h-3.8v25h3.8v-13.1c0-0.9,0.8-1.9,2.2-2
		c0.6,0,1.5,0.3,1.9,0.9c0.5,0.7,0.4,1.6,0.4,2.6l0,11.5h3.8v-11.6C713.4,414.4,713,413.1,711.2,411.9"/>
	<path class="st0" d="M680.4,420.5c0,2.4-0.1,3.1-0.1,3.3c-0.1,1.4-0.7,2.8-2.3,2.8c-1.6,0-2.2-1.5-2.3-2.9c0,0-0.1-0.8-0.1-3.3
		s0.1-3.5,0.1-3.5c0-1.4,0.7-2.8,2.3-2.8c1.6,0,2.3,1.4,2.3,2.7C680.3,417,680.4,418,680.4,420.5L680.4,420.5z M684.1,417.5
		c-0.5-5.3-3.6-6.5-6.1-6.5c-3.5,0-5.7,2.2-6.1,6.5c0,0.3-0.1,1-0.1,3c0,1.5,0.1,2.7,0.1,3c0.2,4,2.5,6.4,6.1,6.4s5.8-2.5,6.1-6.4
		c0-0.3,0.1-1.5,0.1-3C684.2,419.8,684.1,418,684.1,417.5"/>
	<path class="st0" d="M719.7,418.2c0-0.8,0-1,0-1.2c0.1-1.5,0.8-2.7,2.3-2.7c1.8,0,2.2,1.7,2.3,2.7c0,0.5,0.1,0.9,0.1,1.2H719.7z
		 M724.4,423.2c0,0,0,0.3,0,0.6c-0.1,0.9-0.4,2.8-2.3,2.8c-1.6,0-2.2-1.4-2.3-2.9c0-0.4-0.1-0.9-0.1-2.4h8.5c0,0,0-1.3,0-2
		c0-0.3,0-0.8-0.1-1.8c-0.1-1.6-0.7-3.4-1.6-4.5c-1.1-1.3-2.5-2-4.3-2c-3.4,0-5.6,2.2-6,6.5c0,0.4-0.1,0.9-0.1,3
		c0,1.5,0.1,2.7,0.1,3c0.2,3.9,2.5,6.4,6,6.4c3.4,0,5.7-2.4,6-6.6L724.4,423.2z"/>
	<path class="st0" d="M659.9,391.6h61.6l23.5,27.6l-23.5,27.2h-61.6l-23.6-27.3L659.9,391.6z M722.9,388.6h-64.5L632.2,419
		l26.2,30.2h64.5l26.1-30.1L722.9,388.6z"/>
	<path class="st0" d="M660.6,407.8h1.8c1.9,0,3,1,3.1,2.9c0,0.1,0,0.3,0,0.6c0,0.3,0,0.4,0,0.6c-0.1,1.1-0.6,3-2.9,3h-2L660.6,407.8
		L660.6,407.8z M669.6,427.8l-0.4-6.1c-0.2-2.7-0.9-4.4-2.3-5.2c1-0.6,2.4-2.1,2.3-5.3c0-4.8-3-6.5-6.6-6.6h-5.8v24.8h3.7l0-11.3
		h2.1c1.2,0,2.5,1.1,2.8,4l0.4,5.8c0,0.8,0.2,1.5,0.2,1.5h3.7C669.8,429.4,669.6,428.7,669.6,427.8"/>
	<path class="st0" d="M695.1,423c0,0.3,0,0.5,0,0.7c-0.1,1.4-0.6,2.9-2.3,2.9c-1.6,0-2.2-1.6-2.3-2.8c-0.1-0.7,0-1.3-0.1-3.4
		c0-2.4,0.1-3.1,0.1-3.5c0.1-1.6,0.7-2.8,2.3-2.8c1.6,0,2.3,1.4,2.3,2.7c0,0,0,0.3,0.1,1.1h3.7c0-0.3,0-0.5,0-0.6
		c-0.4-5.2-3.6-6.4-6.1-6.4c-3.5,0-5.7,2.2-6.1,6.5c0,0.3-0.1,1-0.1,3c0,1.5,0.1,2.7,0.1,3c0.2,4,2.5,6.4,6.1,6.4
		c3.7,0,5.7-2.2,6.1-6.4c0-0.1,0-0.3,0-0.4H695.1z"/>
</g>
</svg>
