<?xml version="1.0" standalone="no"?>
<!DOCTYPE svg PUBLIC "-//W3C//DTD SVG 20010904//EN"
 "http://www.w3.org/TR/2001/REC-SVG-20010904/DTD/svg10.dtd">
<svg version="1.0" xmlns="http://www.w3.org/2000/svg"
 width="192.000000pt" height="192.000000pt" viewBox="0 0 192.000000 192.000000"
 preserveAspectRatio="xMidYMid meet">
<metadata>
Created by potrace 1.11, written by Peter Selinger 2001-2013
</metadata>
<g transform="translate(0.000000,192.000000) scale(0.100000,-0.100000)"
fill="#000000" stroke="none">
<path d="M692 1743 c-20 -8 -42 -59 -42 -97 0 -56 20 -134 55 -218 18 -43 30
-78 27 -78 -4 0 -21 16 -37 36 -44 53 -103 84 -158 84 -81 0 -126 -29 -134
-89 -11 -81 66 -183 219 -291 l73 -52 -45 7 c-190 31 -420 -16 -420 -86 0 -61
160 -121 345 -128 29 -1 28 -2 -19 -27 -122 -62 -232 -158 -261 -226 -29 -70
1 -113 78 -112 41 0 74 11 160 52 60 28 137 72 173 96 35 25 64 44 64 42 0 -2
-19 -60 -41 -127 -53 -155 -61 -244 -31 -312 13 -29 27 -47 37 -47 29 0 70 37
98 87 37 69 112 264 135 352 l19 75 18 -55 c45 -138 175 -352 249 -410 38 -30
85 -28 111 4 25 33 29 73 14 146 -12 60 -74 201 -110 252 l-21 30 73 -36 c120
-61 252 -90 298 -66 49 27 8 113 -91 191 -54 43 -94 66 -193 112 l-60 27 55 1
c276 4 448 111 368 230 -27 40 -98 80 -143 80 -16 0 -62 -9 -100 -19 -39 -11
-62 -14 -51 -8 147 93 256 217 250 286 -2 34 -39 61 -83 61 -52 0 -154 -56
-265 -144 -53 -42 -96 -75 -96 -73 0 2 18 58 39 124 64 193 61 297 -9 322 -27
9 -68 -4 -100 -31 -48 -40 -94 -133 -145 -291 l-22 -68 -22 63 c-94 263 -174
365 -259 331z"/>
</g>
</svg>
